<svg xmlns="http://www.w3.org/2000/svg" width="40" height="40" viewBox="0 0 40 40"><ellipse cx="4.2" cy="4.2" rx="4.2" ry="4.2" transform="translate(15.8 15.8)" fill="#a71876"/><path d="M26,6A20,20,0,1,0,46,26,20,20,0,0,0,26,6ZM38.357,31.083a7.567,7.567,0,0,1-2.016,5.147,7.707,7.707,0,0,1-5.2,1.995H20.862a7.7,7.7,0,0,1-5.2-1.995,7.567,7.567,0,0,1-2.016-5.147V20.917a7.568,7.568,0,0,1,2.016-5.148,7.706,7.706,0,0,1,5.2-1.995H31.138a7.7,7.7,0,0,1,5.2,1.995,7.567,7.567,0,0,1,2.016,5.148Z" transform="translate(-6 -6)" fill="#a71876"/><path d="M144.755,131.546c-2.5-.069-7.512-.069-10.015,0a5.25,5.25,0,0,0-3.707,1.351,5.315,5.315,0,0,0-1.366,3.668c-.065,2.444,0,9.78,0,9.78a5.341,5.341,0,0,0,1.366,3.668,5.249,5.249,0,0,0,3.707,1.351c2.5.069,7.512.069,10.015,0a5.251,5.251,0,0,0,3.707-1.351,5.315,5.315,0,0,0,1.366-3.668v-9.78a5.316,5.316,0,0,0-1.366-3.668,5.25,5.25,0,0,0-3.707-1.351Zm-5.008,16.419a6.51,6.51,0,1,1,6.51-6.51A6.51,6.51,0,0,1,139.747,147.965Zm6.538-11.676a1.3,1.3,0,1,1,1.3-1.3,1.3,1.3,0,0,1-1.3,1.3Z" transform="translate(-119.747 -121.455)" fill="#a71876"/></svg>