<svg id="home-instructor-card" xmlns="http://www.w3.org/2000/svg" width="248" height="444" viewBox="0 0 248 444">
  <path id="Rectangle_20" data-name="Rectangle 20" d="M124,0h0A124,124,0,0,1,248,124V431.6A12.4,12.4,0,0,1,235.6,444H12.4A12.4,12.4,0,0,1,0,431.6V124A124,124,0,0,1,124,0Z" fill="#fff" opacity="0.5"/>
  <path id="Rectangle_19" data-name="Rectangle 19" d="M119,0h0A119,119,0,0,1,238,119V425.075A8.925,8.925,0,0,1,229.075,434H8.925A8.925,8.925,0,0,1,0,425.075V119A119,119,0,0,1,119,0Z" transform="translate(5 5)" fill="#ffefdb"/>
  <path id="Asset_2_4x" data-name="Asset 2@4x" d="M101.5,0h0A101.5,101.5,0,0,1,203,101.5V272.388A7.612,7.612,0,0,1,195.388,280H7.613A7.612,7.612,0,0,1,0,272.388V101.5A101.5,101.5,0,0,1,101.5,0Z" transform="translate(23 26)" fill="#fff" opacity="0.5"/>
</svg>
