<svg xmlns="http://www.w3.org/2000/svg" xmlns:xlink="http://www.w3.org/1999/xlink" width="126" height="126" viewBox="0 0 126 126"><defs><filter id="a" x="0" y="0" width="126" height="126" filterUnits="userSpaceOnUse"><feOffset dy="3" input="SourceAlpha"/><feGaussianBlur stdDeviation="10" result="b"/><feFlood flood-color="#75935e" flood-opacity="0.2"/><feComposite operator="in" in2="b"/><feComposite in="SourceGraphic"/></filter><filter id="c" x="3" y="3" width="120" height="120" filterUnits="userSpaceOnUse"><feOffset dy="3" input="SourceAlpha"/><feGaussianBlur stdDeviation="10" result="d"/><feFlood flood-color="#75935e" flood-opacity="0.2"/><feComposite operator="in" in2="d"/><feComposite in="SourceGraphic"/></filter></defs><g transform="translate(30 27)"><g transform="matrix(1, 0, 0, 1, -30, -27)" filter="url(#a)"><rect width="66" height="66" rx="15" transform="translate(30 27)" fill="#e75c9d" opacity="0.2"/></g><g transform="matrix(1, 0, 0, 1, -30, -27)" filter="url(#c)"><rect width="60" height="60" rx="13" transform="translate(33 30)" fill="#a71876"/></g><g transform="translate(18.003 14.052)"><path d="M79.324,24.758,77.1,24.105,72.26,20.945V20.22A6.441,6.441,0,0,0,74.8,15.7a1.479,1.479,0,0,0,1.241-1.458V12.248c0-.008,0-.015,0-.023V9.7a1.094,1.094,0,0,0,.458-.893V6.5l3.339-.569a1.184,1.184,0,0,0,.16-2.3L68.742.056a1.178,1.178,0,0,0-.718,0L56.766,3.637A1.188,1.188,0,0,0,56.4,5.7V8.722H56.37a1.151,1.151,0,0,0-1.15,1.15v1.5l-.742,4.356A1.236,1.236,0,0,0,55.7,17.169h2.513a1.236,1.236,0,0,0,1.218-1.443l-.742-4.356v-1.5a1.151,1.151,0,0,0-1.15-1.15h-.027V6.031l2.76.47V8.809a1.1,1.1,0,0,0,.455.891v4.539A1.479,1.479,0,0,0,61.965,15.7,6.441,6.441,0,0,0,64.5,20.219v.728l-4.838,3.16-2.222.652a5.645,5.645,0,0,0-4.057,5.419v1.654a.555.555,0,1,0,1.11,0V30.178a4.562,4.562,0,0,1,3.26-4.354l2.071-.608L68.1,30.132a.562.562,0,0,0,.567,0l8.273-4.916,2.07.608a4.562,4.562,0,0,1,3.259,4.354v5.362a1.249,1.249,0,0,1-1.247,1.247H78.576V34.393a.555.555,0,1,0-1.11,0v2.393H59.3V34.393a.555.555,0,1,0-1.11,0v2.393H55.744A1.249,1.249,0,0,1,54.5,35.539V34.427a.555.555,0,0,0-1.11,0v1.112A2.36,2.36,0,0,0,55.744,37.9H81.023a2.36,2.36,0,0,0,2.357-2.357V30.177a5.645,5.645,0,0,0-4.057-5.419Zm-21.115-8.7H55.7a.125.125,0,0,1-.124-.146l.671-3.94h1.417l.671,3.94A.125.125,0,0,1,58.209,16.059Zm-.634-6.187v.99H56.33v-.99a.04.04,0,0,1,.04-.04h1.165A.039.039,0,0,1,57.574,9.872ZM66.4,27.621l.221.34-5.667-3.368,3.6-2.35A11.66,11.66,0,0,0,66.4,27.621Zm0-2.4a14.274,14.274,0,0,0,3.978,0,10.6,10.6,0,0,1-.934,1.791l-1.055,1.621-1.055-1.621a10.6,10.6,0,0,1-.934-1.791Zm3.975,2.4a11.659,11.659,0,0,0,1.849-5.378l3.6,2.35L70.148,27.96ZM73.616,9.909h1.316v1.784h-.653a.663.663,0,0,1-.663-.663V9.909ZM57.1,4.695,68.36,1.114a.073.073,0,0,1,.045,0L79.663,4.695a.062.062,0,0,1,.051.075c0,.058-.037.063-.061.067l-3.722.634-1.4-.173A.555.555,0,1,0,74.4,6.4l.993.123V8.8H61.378V6.523l5.744-.711a10.283,10.283,0,0,1,2.521,0l2.174.269a.555.555,0,1,0,.136-1.1L69.779,4.71a11.388,11.388,0,0,0-2.794,0l-6.15.761-3.723-.634c-.024,0-.057-.01-.061-.067a.062.062,0,0,1,.051-.075Zm4.732,7V9.909h1.318V11.03a.663.663,0,0,1-.663.663h-.654Zm1.222,3.719a.86.86,0,0,0-.855-.806.367.367,0,0,1-.366-.366V12.8h.654a1.775,1.775,0,0,0,1.773-1.773V9.909h8.245V11.03A1.775,1.775,0,0,0,74.279,12.8h.654v1.436a.367.367,0,0,1-.366.366.86.86,0,0,0-.855.806,5.339,5.339,0,0,1-10.656,0Zm5.328,6.109a6.407,6.407,0,0,0,2.767-.627v.352a10.58,10.58,0,0,1-.375,2.788,13.108,13.108,0,0,1-4.784,0,10.579,10.579,0,0,1-.375-2.788c0-.012,0-.023,0-.035s0,0,0-.007v-.311A6.408,6.408,0,0,0,68.384,21.52Z" transform="translate(-53.387 0)" fill="#fff"/></g></g></svg>