<svg xmlns="http://www.w3.org/2000/svg" xmlns:xlink="http://www.w3.org/1999/xlink" width="126" height="126" viewBox="0 0 126 126">
  <defs>
    <filter id="Rectangle_12" x="0" y="0" width="126" height="126" filterUnits="userSpaceOnUse">
      <feOffset dy="3" input="SourceAlpha"/>
      <feGaussianBlur stdDeviation="10" result="blur"/>
      <feFlood flood-color="#75935e" flood-opacity="0.2"/>
      <feComposite operator="in" in2="blur"/>
      <feComposite in="SourceGraphic"/>
    </filter>
    <filter id="Rectangle_11" x="3" y="3" width="120" height="120" filterUnits="userSpaceOnUse">
      <feOffset dy="3" input="SourceAlpha"/>
      <feGaussianBlur stdDeviation="10" result="blur-2"/>
      <feFlood flood-color="#75935e" flood-opacity="0.2"/>
      <feComposite operator="in" in2="blur-2"/>
      <feComposite in="SourceGraphic"/>
    </filter>
  </defs>
  <g id="Home-Student_icon" data-name="Home-Student icon" transform="translate(30 27)">
    <g transform="matrix(1, 0, 0, 1, -30, -27)" filter="url(#Rectangle_12)">
      <rect id="Rectangle_12-2" data-name="Rectangle 12" width="66" height="66" rx="15" transform="translate(30 27)" fill="#e75c9d" opacity="0.2"/>
    </g>
    <g transform="matrix(1, 0, 0, 1, -30, -27)" filter="url(#Rectangle_11)">
      <rect id="Rectangle_11-2" data-name="Rectangle 11" width="60" height="60" rx="13" transform="translate(33 30)" fill="#a71876"/>
    </g>
    <g id="_004-businessman-1" data-name="004-businessman-1" transform="translate(16 13.945)">
      <g id="Group_8" data-name="Group 8">
        <g id="Group_7" data-name="Group 7" transform="translate(0)">
          <path id="Path_3" data-name="Path 3" d="M62.621,295.853a6.747,6.747,0,0,0-4.532-5.3L52.8,288.786V288H51.57v1.153l-.918,3.671-2.483-2.98H46.363l-2.483,2.98-.917-3.671V288h-1.23v.786l-5.289,1.763a6.749,6.749,0,0,0-4.532,5.3l-1.356,8.131h33.42Zm-18.347,6.9h-6.78l.547-5.471-1.223-.122-.559,5.594H32.008l1.116-6.7a5.522,5.522,0,0,1,3.708-4.34l5.08-1.694,1.362,5.449,1.386-1.664.733,1.1Zm4.742,0h-3.5l1.163-8.138-1.2-1.795,1.457-1.748h.653l1.457,1.748-1.2,1.795Zm9.257,0-.559-5.594-1.223.122.547,5.471h-6.78l-1.121-7.846.733-1.1,1.386,1.664,1.362-5.449,5.08,1.694a5.522,5.522,0,0,1,3.708,4.34l1.116,6.7Z" transform="translate(-30.556 -265.868)" fill="#fff"/>
          <path id="Path_4" data-name="Path 4" d="M114.735,16.564a6.721,6.721,0,0,0,1.709,2.885l2.4,2.4a3.053,3.053,0,0,0,2.173.9H123.9a3.054,3.054,0,0,0,2.173-.9l2.4-2.4a6.725,6.725,0,0,0,1.709-2.885,3.053,3.053,0,0,0,1.482-5.5h.019V7.377a3.079,3.079,0,0,0-2.615-3.039A6.58,6.58,0,0,0,122.9,0h-.443a9.232,9.232,0,0,0-9.222,9.222v1.844h.019a3.053,3.053,0,0,0,1.482,5.5Zm14.483-1.9A5.5,5.5,0,0,1,127.6,18.58l-2.4,2.4a1.857,1.857,0,0,1-1.3.54h-2.881a1.858,1.858,0,0,1-1.3-.54l-2.4-2.4a5.5,5.5,0,0,1-1.621-3.912V11.681h2.415a11.03,11.03,0,0,0,7.285-2.721l.188.314a4.985,4.985,0,0,0,3.637,2.366Zm2.459-1.142a1.841,1.841,0,0,1-1.258,1.74c.017-.2.029-.4.029-.6V11.794A1.842,1.842,0,0,1,131.677,13.525Zm-17.214-4.3a8,8,0,0,1,7.992-7.992h.443a5.342,5.342,0,0,1,5.114,3.858l.127.446h.464a1.847,1.847,0,0,1,1.844,1.844v3.136a3.071,3.071,0,0,0-.615-.062,3.747,3.747,0,0,1-3.2-1.811L125.651,7l-.557.557a9.814,9.814,0,0,1-6.986,2.894h-3.03a3.071,3.071,0,0,0-.615.062Zm0,2.572v2.873c0,.2.012.4.029.6a1.833,1.833,0,0,1-.029-3.472Z" transform="translate(-105.745)" fill="#fff"/>
        </g>
      </g>
    </g>
  </g>
</svg>
