<svg xmlns="http://www.w3.org/2000/svg" width="116.133" height="120" viewBox="0 0 116.133 120">
  <g id="_001-puzzle" data-name="001-puzzle" transform="translate(-8.25)">
    <g id="Group_3163" data-name="Group 3163" transform="translate(72.538 0)">
      <g id="Group_3162" data-name="Group 3162">
        <g id="Group_3161" data-name="Group 3161">
          <path id="Path_4946" data-name="Path 4946" d="M309.271,62.189a9.4,9.4,0,0,1-7.189-3.355,9.662,9.662,0,0,1-2.27-6.989H284.888a2.344,2.344,0,0,1-2.344-2.344V33.7a2.344,2.344,0,0,1,2.767-2.305l.14.026a4.817,4.817,0,1,0,0-9.477l-.14.026a2.344,2.344,0,0,1-2.766-2.305V2.344A2.344,2.344,0,0,1,284.888,0h38.881a10.632,10.632,0,0,1,10.62,10.62V49.5a2.344,2.344,0,0,1-2.344,2.344H318.734a9.505,9.505,0,0,1-9.326,10.343h-.138ZM287.232,47.158h15.337a2.344,2.344,0,0,1,2.306,2.766l-.319,1.746a4.993,4.993,0,0,0,1.106,4.137A4.673,4.673,0,0,0,309.34,57.5,4.817,4.817,0,0,0,314,51.817l-.346-1.894a2.344,2.344,0,0,1,2.306-2.766H329.7V10.62a5.939,5.939,0,0,0-5.933-5.933H287.232V17.215a9.507,9.507,0,0,1,0,18.925Z" transform="translate(-282.544 0)" fill="#f5cbcc"/>
        </g>
      </g>
    </g>
    <g id="Group_3168" data-name="Group 3168" transform="translate(8.25 20.997)">
      <g id="Group_3164" data-name="Group 3164">
        <path id="Path_4947" data-name="Path 4947" d="M104.909,149.919a2.344,2.344,0,0,0,2.344-2.344v-8.486a2.344,2.344,0,0,0-2.344-2.344H88.827a2.344,2.344,0,0,0-2.306,2.766l.347,1.894a4.817,4.817,0,0,1-4.664,5.683,4.677,4.677,0,0,1-3.679-1.695,4.992,4.992,0,0,1-1.106-4.136l.319-1.746a2.344,2.344,0,0,0-2.306-2.766H60.1V125.728a9.507,9.507,0,0,0,0-18.925V91.932a2.344,2.344,0,0,0-2.344-2.344H18.87a10.632,10.632,0,0,0-10.62,10.62v77.762a10.632,10.632,0,0,0,10.62,10.62H96.633a10.632,10.632,0,0,0,10.62-10.62v-6.8a2.344,2.344,0,0,0-4.687,0v6.8a5.939,5.939,0,0,1-5.933,5.933H60.1V168.786a2.344,2.344,0,0,0-2.765-2.306l-.142.026a4.817,4.817,0,1,1,0-9.476l.14.026a2.344,2.344,0,0,0,2.765-2.306V141.433H72.676a9.659,9.659,0,0,0,2.27,6.988A9.474,9.474,0,0,0,91.6,141.433h10.968v6.142A2.343,2.343,0,0,0,104.909,149.919ZM12.937,100.208a5.94,5.94,0,0,1,5.933-5.933H55.408v14.972a2.344,2.344,0,0,0,2.765,2.306l.14-.026h0a4.817,4.817,0,1,1,0,9.476l-.141-.026a2.344,2.344,0,0,0-2.766,2.306v13.462H45.351a9.516,9.516,0,0,0-18.262,0H12.937Zm37.3,54.259a9.507,9.507,0,0,0,5.171,16.763V183.9H18.87a5.939,5.939,0,0,1-5.933-5.933V141.433H29.065a2.344,2.344,0,0,0,2.342-2.242,4.819,4.819,0,0,1,9.628,0,2.344,2.344,0,0,0,2.342,2.242H55.408v10.872a9.478,9.478,0,0,0-5.171,2.162Z" transform="translate(-8.25 -89.588)" fill="#f5cbcc"/>
      </g>
      <g id="Group_3167" data-name="Group 3167" transform="translate(94.319 67.325)">
        <g id="Group_3166" data-name="Group 3166">
          <g id="Group_3165" data-name="Group 3165">
            <path id="Path_4948" data-name="Path 4948" d="M413.017,381.521a2.342,2.342,0,1,1,2.3-1.884A2.362,2.362,0,0,1,413.017,381.521Z" transform="translate(-410.678 -376.841)" fill="#f5cbcc"/>
          </g>
        </g>
      </g>
    </g>
  </g>
</svg>
