<svg id="Layer_2" data-name="Layer 2" xmlns="http://www.w3.org/2000/svg" width="40" height="40" viewBox="0 0 40 40">
  <g id="Color">
    <path id="_10.Linkedin" data-name="10.Linkedin" d="M20,0A20,20,0,1,0,40,20,20,20,0,0,0,20,0ZM14.184,30.526H9.821V16.471h4.363ZM12,14.553A2.539,2.539,0,1,1,14.529,12,2.539,2.539,0,0,1,12,14.553ZM30.526,30.526H26.166V23.684c0-1.632-.032-3.724-2.268-3.724s-2.632,1.774-2.632,3.605v6.961H16.921V16.471h4.187v1.916h.061A4.582,4.582,0,0,1,25.3,16.116c4.416,0,5.229,2.911,5.229,6.689Z" fill="#a71876"/>
  </g>
</svg>
