<svg id="Layer_2" data-name="Layer 2" xmlns="http://www.w3.org/2000/svg" width="30" height="30" viewBox="0 0 30 30">
  <g id="Color">
    <path id="_10.Linkedin" data-name="10.Linkedin" d="M15,0A15,15,0,1,0,30,15,15,15,0,0,0,15,0ZM10.638,22.895H7.366V12.353h3.272ZM9,10.914A1.9,1.9,0,1,1,10.9,9,1.9,1.9,0,0,1,9,10.914Zm13.895,11.98h-3.27V17.763c0-1.224-.024-2.793-1.7-2.793s-1.974,1.33-1.974,2.7v5.22H12.691V12.353h3.14V13.79h.045a3.437,3.437,0,0,1,3.1-1.7c3.312,0,3.922,2.183,3.922,5.017Z" fill="#ffaf43"/>
  </g>
</svg>
