<svg xmlns="http://www.w3.org/2000/svg" xmlns:xlink="http://www.w3.org/1999/xlink" width="94.835" height="37.083" viewBox="0 0 94.835 37.083">
  <defs>
    <clipPath id="clip-path">
      <rect id="Rectangle_134" data-name="Rectangle 134" width="94.835" height="37.084" fill="#9a9a9a"/>
    </clipPath>
  </defs>
  <g id="Group_3071" data-name="Group 3071" clip-path="url(#clip-path)">
    <path id="Path_4371" data-name="Path 4371" d="M21.464,14.249c0,6.385-3.211,11.435-8.045,11.435C8.694,25.684,5.3,20.85,5.3,14.177c0-6.385,3.21-11.435,8.044-11.435,4.726,0,8.117,4.833,8.117,11.507m5.3-.18c0-7.178-5.484-12.879-13.348-12.879C6.169,1.19,0,6.385,0,14.357c0,7.178,5.483,12.878,13.347,12.878,7.25,0,13.42-5.194,13.42-13.166m11.687,2.6c0,2.525-1.154,4.689-2.957,4.689-1.732,0-3.1-1.912-3.1-4.834,0-2.489,1.154-4.689,2.994-4.689,1.7,0,3.066,1.912,3.066,4.834m12.265-9.92c0-1.8-1.623-3.139-4.618-3.139-4.112,0-7.287,2.67-7.287,6.746,0,.325.036.577.036.83a8.685,8.685,0,0,0-3.355-.649c-3.246,0-7.142,1.984-7.142,6.277a5.633,5.633,0,0,0,3.066,4.906c-2.886.4-4.545,1.948-4.545,4.364,0,2.453,1.948,4.221,5.591,3.788l5.267-.649c2.633-.325,3.5.613,3.5,1.984,0,2.381-2.236,4.293-5.808,4.293-2.85,0-3.9-1.01-3.9-2.453,0-.216.036-.5.036-.721a1.413,1.413,0,0,0-1.407-1.515,1.594,1.594,0,0,0-1.624,1.767c0,2.381,2.273,4.51,6.927,4.51,5.231,0,8.55-3.391,8.55-7.287,0-3.1-2.489-4.8-5.916-4.365l-6.025.757c-1.984.253-2.6-.4-2.6-1.406,0-1.191,1.3-2.128,5.808-2.128h.072c3.282,0,7.142-1.984,7.142-6.277a5.285,5.285,0,0,0-1.443-3.643,4.676,4.676,0,0,1-.433-2.236c0-3.174,2.164-4.978,4.4-4.978.938,0,1.226.144,1.226.793,0,.18-.036.325-.036.541a2.256,2.256,0,0,0,4.51-.108M61.9,25.684,60.134,25.5a.493.493,0,0,1-.433-.541V0L53.352,1.623v.757l1.8.577a.586.586,0,0,1,.4.614V24.854a.716.716,0,0,1-.793.685l-1.61.033-1.708-.033a.716.716,0,0,1-.793-.685V10.461L44.3,12.085v.757l1.8.577a.586.586,0,0,1,.4.614v10.93a.493.493,0,0,1-.433.541l-1.479.181v1.154H61.9ZM94.835,12.193V11.075H88.667v1.082l1.443.289c.505.108.65.505.325,1.3l-3.318,8.008c-.145.325-.325.325-.434,0l-3.1-8.008c-.325-.829-.144-1.19.36-1.3l1.443-.289V11.075H72.543v1.082l1.443.289c.5.108.685.505.361,1.3l-3.211,8.441c-.145.325-.325.325-.433,0l-3.247-8.441c-.288-.829-.145-1.19.361-1.3l1.443-.289V11.075H61.107v1.118l.794.18a1.386,1.386,0,0,1,1.082.9L68.5,26.839h2.489l5.52-13.564c.288-.722.613-1.01,1.19-1.01h.216c.469,0,.83.181,1.118.866L84.807,27.2l-1.552,3.679c-1.01,2.453-1.767,2.886-2.705,2.886-.4,0-.83-.072-1.263-.072a1.692,1.692,0,0,0-1.8,1.659c0,.974.793,1.66,2.056,1.66,1.8,0,3.571-1.443,5.051-4.906l7.864-18.434a1.98,1.98,0,0,1,1.587-1.335Z" fill="#9a9a9a"/>
  </g>
</svg>
