<svg xmlns="http://www.w3.org/2000/svg" width="107.149" height="19.469" viewBox="0 0 107.149 19.469">
  <g id="Group_3036" data-name="Group 3036" transform="translate(-310 -1516.242)">
    <g id="Group_3018" data-name="Group 3018" transform="translate(310 1516.242)">
      <path id="Path_5" data-name="Path 5" d="M26.14,317.229c-.125-.54.042-.83.291-.83.374,0,.374.332.5.872a5.753,5.753,0,0,0,5.646,4.027c2.532,0,5.064-1.411,5.064-4.234,0-5.189-10.918-2.283-10.918-9.3,0-3.4,2.864-5.064,5.978-5.064a9.732,9.732,0,0,1,4.525.955c.249,0,.291-.291.581-.291.166,0,.291.083.332.374l.415,3.653c.042.207-.042.415-.291.415-.291,0-.5-.581-.581-.789a5.113,5.113,0,0,0-5.147-3.487c-2.117,0-4.359,1.038-4.359,3.487,0,5.064,10.918,2.076,10.918,9.506,0,2.242-1.577,5.646-7.68,5.646-1.993,0-4.442-1-4.525-1.494Z" transform="translate(-26.098 -302.7)" fill="#9a9a9a"/>
    </g>
    <g id="Group_3017" data-name="Group 3017" transform="translate(323 1518.027)">
      <path id="Path_6" data-name="Path 6" d="M70.47,318.706c-.249-.54-.374-.913-1.079-.913H64.078c-.457,0-.913,0-1.121.5l-1.536,3.4a2.258,2.258,0,0,0-.166.83c0,1.7,1.7.955,1.7,1.619,0,.415-.332.374-.664.374-.664,0-1.37-.083-2.034-.083s-1.287.083-1.951.083c-.166,0-.208-.125-.208-.249,0-.5,1.121-.083,1.785-1.494l5.77-12.329c1.411-3.03,1.494-3.445,1.827-3.445.249,0,.415.706.5.913L73,320.367a16.132,16.132,0,0,0,1.2,2.74c.747,1.121,2.117.581,2.117,1.2,0,.208-.166.208-.332.208-1,0-1.993-.083-2.989-.083-.664,0-1.287.083-1.951.083-.125,0-.54,0-.54-.249,0-.581,1.453-.332,1.453-1.245a9.139,9.139,0,0,0-.747-2.283ZM63.912,316.3c-.166.332,0,.457.332.457h4.774c.54,0,.5-.166.374-.5l-2.366-5.812q-.187-.436-.374,0Z" transform="translate(-58.1 -307)" fill="#9a9a9a"/>
      <path id="Path_7" data-name="Path 7" d="M115.771,318.706c-.249-.54-.374-.913-1.079-.913h-5.313c-.457,0-.913,0-1.121.5l-1.536,3.4a2.258,2.258,0,0,0-.166.83c0,1.7,1.7.955,1.7,1.619,0,.415-.332.374-.664.374-.664,0-1.37-.083-2.034-.083s-1.287.083-1.951.083a.232.232,0,0,1-.208-.249c0-.5,1.121-.083,1.743-1.494l5.77-12.329c1.411-3.03,1.494-3.445,1.827-3.445.249,0,.415.706.5.913l5.023,12.453a16.133,16.133,0,0,0,1.2,2.74c.747,1.121,2.117.581,2.117,1.2,0,.208-.166.208-.332.208-1,0-1.993-.083-2.989-.083-.664,0-1.287.083-1.951.083-.166,0-.54,0-.54-.249,0-.581,1.453-.332,1.453-1.245a9.14,9.14,0,0,0-.747-2.283Zm-6.517-2.408c-.166.332,0,.457.332.457h4.774c.54,0,.5-.166.374-.5l-2.366-5.812q-.187-.436-.374,0Z" transform="translate(-84.595 -307)" fill="#9a9a9a"/>
      <path id="Path_8" data-name="Path 8" d="M149.049,310.249c0-.166.083-1.079-.249-1.121h-3.944c-1.494,0-1.536.374-1.993,1.7-.083.249-.083.54-.415.54a.274.274,0,0,1-.249-.291l.249-2.325c.042-.291,0-.955.457-.955,1.868,0,3.736.083,6.849.083,4.359,0,6.6-.083,7.1-.083.54,0,.664.125.706.706l.125,1.951c.042.249.042.54-.249.54-.913,0,.415-1.826-2.034-1.826h-3.445c-1.079,0-.955-.083-.955,1.2V322.7c0,2.034,1.951,1.245,1.951,1.993,0,.083.042.291-.208.291-.581,0-1.245-.083-1.951-.083-2.7,0-3.155.083-3.321.083-.208,0-.291-.083-.291-.332,0-.581,1.91-.332,1.91-1.785v-12.62Z" transform="translate(-107.289 -307.468)" fill="#9a9a9a"/>
      <path id="Path_9" data-name="Path 9" d="M190.717,307.3c4.525,0,5.812,1.868,6.517,1.868.208,0,.332-.249.581-.249s.249.374.332,1.951c.042,1.287.249,2.076-.166,2.076-.291,0-.457-.623-.54-.789-1.494-2.574-3.2-4.151-6.351-4.151-4.732,0-6.974,3.155-6.974,7.638,0,4.193,2.408,8.427,7.057,8.427,3.819,0,6.185-2.408,6.517-3.529.042-.166.208-.332.332-.332a.208.208,0,0,1,.208.249l-.54,2.408c-.042.083-1.743,1.91-7.182,1.91a8.107,8.107,0,0,1-8.51-8.427,8.74,8.74,0,0,1,8.717-9.049" transform="translate(-130.567 -307.175)" fill="#9a9a9a"/>
      <path id="Path_10" data-name="Path 10" d="M226.217,309.976c-.042-1.785-2.117-1.287-2.117-1.826,0-.208.208-.249.374-.249.913,0,1.785.083,2.657.083.747,0,1.494-.083,2.242-.083.415,0,.457.124.457.249,0,.5-1.744.042-1.744,1.826v5.23c0,.332,0,.415.374.415h8.884c.249,0,.208-.623.208-.706v-4.94c0-1.66-1.827-1.245-1.827-1.826,0-.166.042-.249.415-.249.789,0,2.034.083,2.532.083.913,0,1.245-.083,1.744-.083.623,0,.664.249.664.374,0,.415-1.619.042-1.619,1.7V322.8c0,1.785,2.2,1.328,2.2,1.951,0,.083-.083.291-.249.291-.664,0-1.411-.083-2.283-.083-1.536,0-2.242.083-2.7.083-.208,0-.581.083-.581-.332,0-.581,1.7-.249,1.7-1.785v-5.812c0-.374.083-.623-.208-.623h-8.925c-.291,0-.291.166-.291.415v6.019c0,1.66,2.283,1.121,2.283,1.868,0,.125-.166.208-.374.208-.332,0-2.076-.083-3.362-.083A14.673,14.673,0,0,0,224.6,325c-.208,0-.249-.125-.249-.374,0-.706,1.868.083,1.868-2.283v-12.37Z" transform="translate(-155.191 -307.526)" fill="#9a9a9a"/>
      <path id="Path_11" data-name="Path 11" d="M272.351,309.976c-.041-1.785-1.951-1.287-1.951-1.826,0-.208.042-.249.249-.249.913,0,1.785.083,2.657.083.747,0,1.494-.083,2.242-.083.374,0,.457.042.457.249,0,.581-1.743.042-1.743,1.826v12.993c0,1.66,2.159,1.079,2.159,1.827,0,.166-.083.249-.5.249-.54,0-1.577-.083-2.615-.083-1.494,0-1.993.083-2.325.083-.415,0-.5-.125-.5-.374,0-.706,1.868.083,1.868-2.283Z" transform="translate(-182.271 -307.526)" fill="#9a9a9a"/>
    </g>
  </g>
</svg>
