<svg xmlns="http://www.w3.org/2000/svg" xmlns:xlink="http://www.w3.org/1999/xlink" width="94.947" height="48.476" viewBox="0 0 94.947 48.476">
  <defs>
    <clipPath id="clip-path">
      <rect id="Rectangle_95" data-name="Rectangle 95" width="94.947" height="48.476" fill="#9a9a9a"/>
    </clipPath>
  </defs>
  <g id="Group_3038" data-name="Group 3038" clip-path="url(#clip-path)">
    <path id="Subtraction_4" data-name="Subtraction 4" d="M20.562,48.476a4.841,4.841,0,0,1-2.42-.649L2.418,38.74A4.85,4.85,0,0,1,0,34.552V1.21A1.21,1.21,0,0,1,1.207,0a1.224,1.224,0,0,1,.315.042L19.316,4.785a4.834,4.834,0,0,0,1.246.163,4.842,4.842,0,0,0,1.247-.163L39.6.042A1.224,1.224,0,0,1,39.917,0a1.209,1.209,0,0,1,1.206,1.21V34.552a4.851,4.851,0,0,1-2.417,4.189L22.983,47.826A4.845,4.845,0,0,1,20.562,48.476ZM12.268,19.55l8.294,14.363,5.223-9.046a19.379,19.379,0,0,1,2.923-3.855l1.527-1.561-2.044,1.18a9.693,9.693,0,0,0-3.542,3.543l-3.515,6.087-4.025-7.14a4.842,4.842,0,0,0-1.8-1.813L12.268,19.55ZM13.3,26.945l1.691,2.927a4.838,4.838,0,0,0,1.771,1.771l2.679,1.547-2.339-4.05-3.8-2.195Zm6.447-8.712h0L19.438,19.4l4.025,1.078-.141.158a4.9,4.9,0,0,0-.6.818l-2.932,5.079,1.4,2.42,2.854-4.943a10.9,10.9,0,0,1,3.985-3.985l9.465-5.465-9.171,2.457a7.252,7.252,0,0,1-3.757,0l-1.854-.5L22.4,17.691l-1.168-.313-.314,1.168-1.168-.313ZM8.466,20.753l1.691,2.928a4.84,4.84,0,0,0,1.77,1.77L16.5,28.092l-2.339-4.051-5.7-3.288ZM3.629,14.562l1.688,2.926A4.854,4.854,0,0,0,7.089,19.26l6.468,3.735-2.339-4.05L3.629,14.562Z" transform="translate(0 0)" fill="#9a9a9a" stroke="rgba(0,0,0,0)" stroke-miterlimit="10" stroke-width="1"/>
    <path id="Path_4341" data-name="Path 4341" d="M138.491,54.239l.236,1.035h.079l.223-1.009L142.807,41.5a1.77,1.77,0,0,1,1.7-1.267h2.714L140.732,59.31H136.8l-6.473-19.077h2.713a1.769,1.769,0,0,1,1.7,1.269Z" transform="translate(-83.157 -25.671)" fill="#9a9a9a"/>
    <path id="Path_4342" data-name="Path 4342" d="M186.481,56.362H193.2a1.769,1.769,0,0,1,1.769,1.769V59.31H182.655V40.233h3.826Z" transform="translate(-116.545 -25.671)" fill="#9a9a9a"/>
    <path id="Path_4343" data-name="Path 4343" d="M235.349,40.233V52.89a6.043,6.043,0,0,1-2.123,4.952,8.474,8.474,0,0,1-5.555,1.743,8.373,8.373,0,0,1-5.522-1.743,6.07,6.07,0,0,1-2.1-4.952V40.233h2.07A1.769,1.769,0,0,1,223.884,42V52.88a3.666,3.666,0,0,0,1.009,2.821,3.925,3.925,0,0,0,2.778.936,4.03,4.03,0,0,0,2.817-.929,3.635,3.635,0,0,0,1.022-2.827V42a1.769,1.769,0,0,1,1.769-1.769Z" transform="translate(-140.402 -25.671)" fill="#9a9a9a"/>
  </g>
</svg>
