<svg xmlns="http://www.w3.org/2000/svg" width="40" height="40" viewBox="0 0 40 40">
  <path id="_008-youtube-1" data-name="008-youtube-1" d="M34.568,35.4a.649.649,0,0,0-.433.163q-.178.138-.178,1.044v.3l.038.038H35.1l.038-.038V36.17q0-.768-.573-.767Zm-4.824-.025a.764.764,0,0,0-.6.3v4.366a.832.832,0,0,0,.6.314h.115q.395,0,.395-.6V36.044Q30.2,35.377,29.744,35.377Zm-6.988-1.019h1.311v5.385q0,.465.293.465h.089q.305,0,.764-.528V34.358h1.324v7.02H25.213v-.755H25.2a2.182,2.182,0,0,1-1.527.855h-.025a.778.778,0,0,1-.662-.327,2.474,2.474,0,0,1-.229-1.4Zm11.774-.163h.14q1.833,0,1.833,2.2v1.623H33.995l-.038.038v1.208q0,1.082.522,1.082h.114a.7.7,0,0,0,.344-.1q.2-.151.2-.83v-.541H36.5v.3a3.827,3.827,0,0,1-.153,1.246,1.734,1.734,0,0,1-1.82,1.145,2.092,2.092,0,0,1-.8-.151,1.922,1.922,0,0,1-1.107-1.937V36.195a2.392,2.392,0,0,1,.153-.83,1.86,1.86,0,0,1,1.757-1.17Zm-6.695-2.328h1.311v3.045h.025a1.6,1.6,0,0,1,1.158-.642q1.286,0,1.286,1.811v3.85a3.323,3.323,0,0,1-.076.679,1.063,1.063,0,0,1-1.031.843h-.178a1.567,1.567,0,0,1-1.158-.579h-.025v.5H27.835Zm-9.623,0h4.557v1.359h-1.5l-.038.038v8.115H19.752V33.263l-.038-.038h-1.5ZM26.32,29.4q-2.788,0-4.735.076a12.414,12.414,0,0,0-2.724.189A3.15,3.15,0,0,0,17.1,30.986a3.841,3.841,0,0,0-.42,1.019q-.191,2.051-.191,4.278V37q0,1.874.115,3.233a3.3,3.3,0,0,0,.993,2.654,3.161,3.161,0,0,0,1.655.83q3.08.176,7.1.176h2.049q3.322,0,5.855-.113a4.806,4.806,0,0,0,2.1-.327,3.167,3.167,0,0,0,1.629-1.824,22.932,22.932,0,0,0,.28-4.492v-.981q0-1.837-.115-3.057a3.362,3.362,0,0,0-.916-2.63,3.085,3.085,0,0,0-1.731-.906q-3.055-.163-7.09-.163Zm.9-7.07.242.038a.538.538,0,0,1,.344.553v3.636q0,.7-.573.7h-.013q-.522,0-.522-.566V22.822q0-.428.522-.491Zm3.093-1.057-.038.038v5.724a3.336,3.336,0,0,0,.076.755.826.826,0,0,0,.853.642,2.173,2.173,0,0,0,1.515-.855v.7l.038.038H34.03l.038-.038v-6.97l-.038-.038H32.757l-.038.038v5.309q-.458.5-.751.5h-.051q-.305,0-.305-.566V21.312l-.038-.038Zm-3.093-.164a1.936,1.936,0,0,0-1.285.415,1.827,1.827,0,0,0-.624,1.661v3.019a6.052,6.052,0,0,0,.051.868,1.782,1.782,0,0,0,1.871,1.434l.636-.076a1.729,1.729,0,0,0,1.3-1.811V22.859a1.594,1.594,0,0,0-.115-.616,1.728,1.728,0,0,0-1.718-1.133Zm-6.8-2.327-.025.025.216.729q1.54,4.907,1.54,5.083v3.661l.038.038h1.438l.038-.038V24.444q0-.113,1.731-5.636h-.013l-.025-.025H23.873l-.916,3.8h-.089q-.42-1.761-.751-2.931a3.184,3.184,0,0,0-.242-.868Zm6.959-7.444a20,20,0,1,1-20,20,20,20,0,0,1,20-20Z" transform="translate(-7.383 -11.339)" fill="#a71876" fill-rule="evenodd"/>
</svg>
